<svg width="331" height="380" viewBox="0 0 331 380" fill="none" xmlns="http://www.w3.org/2000/svg">
<path d="M2 1L2 39.2431" stroke="#E75B4C" stroke-width="4"/>
<line x1="2.96826" y1="2.87268" x2="38.791" y2="2.87268" stroke="#E75B4C" stroke-width="4"/>
<path d="M2 377.064H40.2431" stroke="#E75B4C" stroke-width="4"/>
<path d="M3.93634 376.121L3.93634 340.273" stroke="#E75B4C" stroke-width="4"/>
<path d="M329 379V340.273" stroke="#E75B4C" stroke-width="4"/>
<line x1="328.032" y1="377.127" x2="292.209" y2="377.127" stroke="#E75B4C" stroke-width="4"/>
<path d="M329 2.9364L290.757 2.9364" stroke="#E75B4C" stroke-width="4"/>
<line x1="327.127" y1="3.90454" x2="327.127" y2="39.7273" stroke="#E75B4C" stroke-width="4"/>
<g clip-path="url(#clip0)">
<path d="M131.248 172.245V163.614C131.248 158.739 135.004 154.983 139.879 154.983H148.509C149.609 154.983 150.501 154.092 150.501 152.992C150.501 151.892 149.609 151 148.509 151H139.879C132.804 151 127.265 156.539 127.265 163.614V172.245C127.265 173.345 128.156 174.236 129.256 174.236C130.356 174.236 131.248 173.345 131.248 172.245Z" fill="#E75B4C"/>
<path d="M200.736 172.245V163.614C200.736 158.739 196.98 154.983 192.105 154.983H183.475C182.375 154.983 181.483 154.092 181.483 152.992C181.483 151.892 182.375 151 183.475 151H192.105C199.18 151 204.719 156.539 204.719 163.614V172.245C204.719 173.345 203.828 174.236 202.728 174.236C201.628 174.236 200.736 173.345 200.736 172.245Z" fill="#E75B4C"/>
<path d="M131.248 207.21V215.841C131.248 220.716 135.004 224.471 139.879 224.471H148.509C149.609 224.471 150.501 225.363 150.501 226.463C150.501 227.563 149.609 228.455 148.509 228.455H139.879C132.804 228.455 127.265 222.916 127.265 215.841V207.21C127.265 206.11 128.156 205.218 129.256 205.218C130.356 205.218 131.248 206.11 131.248 207.21Z" fill="#E75B4C"/>
<path d="M200.736 207.21V215.841C200.736 220.716 196.98 224.471 192.105 224.471H183.475C182.375 224.471 181.483 225.363 181.483 226.463C181.483 227.563 182.375 228.455 183.475 228.455H192.105C199.18 228.455 204.719 222.916 204.719 215.841V207.21C204.719 206.11 203.828 205.218 202.728 205.218C201.628 205.218 200.736 206.11 200.736 207.21Z" fill="#E75B4C"/>
<path d="M148.327 180.252V185.787C148.327 186.933 149.194 187.862 150.263 187.862C151.333 187.862 152.2 186.933 152.2 185.787V180.252C152.2 179.106 151.333 178.177 150.263 178.177C149.194 178.177 148.327 179.106 148.327 180.252Z" fill="#E75B4C"/>
<path d="M180.26 180.252V185.787C180.26 186.933 181.127 187.862 182.196 187.862C183.266 187.862 184.133 186.933 184.133 185.787V180.252C184.133 179.106 183.266 178.177 182.196 178.177C181.127 178.177 180.26 179.106 180.26 180.252Z" fill="#E75B4C"/>
<path d="M152.372 208.203C156.149 211.728 160.723 213.507 165.992 213.507C171.261 213.507 175.835 211.728 179.612 208.203C180.435 207.435 180.48 206.145 179.712 205.322C178.944 204.499 177.654 204.455 176.831 205.223C173.814 208.039 170.235 209.431 165.992 209.431C161.749 209.431 158.17 208.039 155.153 205.223C154.33 204.455 153.04 204.499 152.272 205.322C151.504 206.145 151.549 207.435 152.372 208.203Z" fill="#E75B4C"/>
<path d="M165.992 180.215V194.483C165.992 195.396 165.546 195.842 164.628 195.842H163.274C162.149 195.842 161.236 196.755 161.236 197.88C161.236 199.006 162.149 199.919 163.274 199.919H164.628C167.796 199.919 170.069 197.649 170.069 194.483V180.215C170.069 179.09 169.156 178.177 168.03 178.177C166.905 178.177 165.992 179.09 165.992 180.215Z" fill="#E75B4C"/>
</g>
<defs>
<clipPath id="clip0">
<rect width="77.4545" height="77.4545" fill="white" transform="translate(127.265 151)"/>
</clipPath>
</defs>
</svg>
