<svg width="375" height="812" viewBox="0 0 375 812" fill="none" xmlns="http://www.w3.org/2000/svg">
<rect width="375" height="812" fill="white"/>
<rect x="120" y="797" width="135" height="5" rx="2.5" fill="black"/>
<path d="M105.305 377C104.972 377 104.732 376.833 104.585 376.5L98.6455 362.6C98.4988 362.227 98.4855 361.933 98.6055 361.72C98.7388 361.493 98.9655 361.38 99.2855 361.38C99.6188 361.38 99.8588 361.547 100.005 361.88L105.305 374.56L110.585 361.92C110.732 361.56 110.992 361.38 111.365 361.38C111.672 361.38 111.879 361.5 111.985 361.74C112.092 361.967 112.085 362.227 111.965 362.52L106.005 376.5C105.859 376.833 105.625 377 105.305 377ZM116.585 377.1C115.505 377.1 114.545 376.867 113.705 376.4C112.878 375.92 112.225 375.26 111.745 374.42C111.278 373.58 111.045 372.62 111.045 371.54C111.045 370.447 111.265 369.487 111.705 368.66C112.158 367.82 112.778 367.16 113.565 366.68C114.352 366.2 115.258 365.96 116.285 365.96C117.298 365.96 118.178 366.193 118.925 366.66C119.685 367.113 120.272 367.747 120.685 368.56C121.098 369.373 121.305 370.3 121.305 371.34C121.305 371.553 121.238 371.727 121.105 371.86C120.972 371.98 120.798 372.04 120.585 372.04H112.505C112.585 372.76 112.805 373.4 113.165 373.96C113.525 374.507 113.998 374.94 114.585 375.26C115.172 375.567 115.838 375.72 116.585 375.72C117.065 375.72 117.545 375.64 118.025 375.48C118.518 375.307 118.912 375.093 119.205 374.84C119.352 374.72 119.518 374.66 119.705 374.66C119.892 374.647 120.052 374.693 120.185 374.8C120.358 374.96 120.445 375.133 120.445 375.32C120.458 375.507 120.385 375.667 120.225 375.8C119.785 376.173 119.225 376.487 118.545 376.74C117.865 376.98 117.212 377.1 116.585 377.1ZM116.285 367.34C115.258 367.34 114.412 367.66 113.745 368.3C113.078 368.927 112.678 369.747 112.545 370.76H119.865C119.758 369.747 119.385 368.927 118.745 368.3C118.118 367.66 117.298 367.34 116.285 367.34ZM124.26 377C123.753 377 123.5 376.747 123.5 376.24V366.82C123.5 366.313 123.753 366.06 124.26 366.06C124.767 366.06 125.02 366.313 125.02 366.82V367.68C125.42 367.147 125.913 366.727 126.5 366.42C127.087 366.1 127.733 365.94 128.44 365.94C129.053 365.94 129.527 366.027 129.86 366.2C130.193 366.373 130.32 366.627 130.24 366.96C130.173 367.267 130.013 367.427 129.76 367.44C129.52 367.44 129.233 367.427 128.9 367.4C128.153 367.333 127.487 367.413 126.9 367.64C126.327 367.853 125.867 368.187 125.52 368.64C125.187 369.093 125.02 369.633 125.02 370.26V376.24C125.02 376.747 124.767 377 124.26 377ZM133.35 377C133.11 377 132.917 376.933 132.77 376.8C132.637 376.653 132.57 376.46 132.57 376.22V366.84C132.57 366.6 132.637 366.413 132.77 366.28C132.917 366.133 133.11 366.06 133.35 366.06C133.577 366.06 133.757 366.133 133.89 366.28C134.037 366.413 134.11 366.6 134.11 366.84V376.22C134.11 376.46 134.037 376.653 133.89 376.8C133.757 376.933 133.577 377 133.35 377ZM133.33 363.98C133.037 363.98 132.783 363.873 132.57 363.66C132.357 363.447 132.25 363.187 132.25 362.88C132.25 362.547 132.357 362.287 132.57 362.1C132.797 361.9 133.057 361.8 133.35 361.8C133.63 361.8 133.877 361.9 134.09 362.1C134.317 362.287 134.43 362.547 134.43 362.88C134.43 363.187 134.323 363.447 134.11 363.66C133.897 363.873 133.637 363.98 133.33 363.98ZM138.981 377C138.781 377 138.608 376.933 138.461 376.8C138.315 376.653 138.241 376.46 138.241 376.22V367.8H136.961C136.748 367.8 136.575 367.74 136.441 367.62C136.321 367.487 136.261 367.327 136.261 367.14C136.261 366.94 136.321 366.78 136.441 366.66C136.575 366.527 136.748 366.46 136.961 366.46H138.241V366.08C138.241 364.68 138.601 363.547 139.321 362.68C140.041 361.813 141.081 361.38 142.441 361.38C142.668 361.38 142.855 361.447 143.001 361.58C143.148 361.713 143.221 361.88 143.221 362.08C143.221 362.28 143.148 362.447 143.001 362.58C142.855 362.713 142.668 362.78 142.441 362.78C141.535 362.78 140.861 363.087 140.421 363.7C139.995 364.3 139.781 365.067 139.781 366V366.46H142.181C142.395 366.46 142.561 366.527 142.681 366.66C142.815 366.78 142.881 366.94 142.881 367.14C142.881 367.327 142.815 367.487 142.681 367.62C142.561 367.74 142.395 367.8 142.181 367.8H139.781V376.22C139.781 376.46 139.708 376.653 139.561 376.8C139.428 376.933 139.235 377 138.981 377ZM145.636 377C145.396 377 145.202 376.933 145.056 376.8C144.922 376.653 144.856 376.46 144.856 376.22V366.84C144.856 366.6 144.922 366.413 145.056 366.28C145.202 366.133 145.396 366.06 145.636 366.06C145.862 366.06 146.042 366.133 146.176 366.28C146.322 366.413 146.396 366.6 146.396 366.84V376.22C146.396 376.46 146.322 376.653 146.176 376.8C146.042 376.933 145.862 377 145.636 377ZM145.616 363.98C145.322 363.98 145.069 363.873 144.856 363.66C144.642 363.447 144.536 363.187 144.536 362.88C144.536 362.547 144.642 362.287 144.856 362.1C145.082 361.9 145.342 361.8 145.636 361.8C145.916 361.8 146.162 361.9 146.376 362.1C146.602 362.287 146.716 362.547 146.716 362.88C146.716 363.187 146.609 363.447 146.396 363.66C146.182 363.873 145.922 363.98 145.616 363.98ZM154.787 377.1C153.734 377.1 152.794 376.86 151.967 376.38C151.154 375.887 150.507 375.22 150.027 374.38C149.56 373.54 149.327 372.593 149.327 371.54C149.327 370.473 149.554 369.52 150.007 368.68C150.46 367.84 151.08 367.18 151.867 366.7C152.654 366.207 153.56 365.96 154.587 365.96C156.254 365.96 157.607 366.6 158.647 367.88C158.794 368.04 158.847 368.213 158.807 368.4C158.767 368.573 158.654 368.727 158.467 368.86C158.32 368.967 158.154 369.007 157.967 368.98C157.794 368.94 157.64 368.84 157.507 368.68C156.734 367.8 155.76 367.36 154.587 367.36C153.84 367.36 153.18 367.54 152.607 367.9C152.047 368.26 151.607 368.753 151.287 369.38C150.98 370.007 150.827 370.727 150.827 371.54C150.827 372.34 150.994 373.053 151.327 373.68C151.66 374.307 152.127 374.8 152.727 375.16C153.327 375.52 154.014 375.7 154.787 375.7C155.854 375.7 156.714 375.413 157.367 374.84C157.527 374.707 157.694 374.633 157.867 374.62C158.04 374.607 158.2 374.66 158.347 374.78C158.507 374.927 158.594 375.093 158.607 375.28C158.634 375.467 158.574 375.627 158.427 375.76C157.454 376.653 156.24 377.1 154.787 377.1ZM166.231 377.1C165.204 377.1 164.284 376.86 163.471 376.38C162.658 375.887 162.011 375.22 161.531 374.38C161.064 373.54 160.831 372.593 160.831 371.54C160.831 370.473 161.071 369.52 161.551 368.68C162.044 367.84 162.711 367.18 163.551 366.7C164.391 366.207 165.338 365.96 166.391 365.96C167.444 365.96 168.384 366.207 169.211 366.7C170.051 367.18 170.711 367.84 171.191 368.68C171.684 369.52 171.938 370.473 171.951 371.54V376.24C171.951 376.467 171.878 376.653 171.731 376.8C171.584 376.933 171.398 377 171.171 377C170.944 377 170.758 376.933 170.611 376.8C170.464 376.653 170.391 376.467 170.391 376.24V375.02C169.938 375.66 169.351 376.167 168.631 376.54C167.911 376.913 167.111 377.1 166.231 377.1ZM166.391 375.7C167.164 375.7 167.851 375.52 168.451 375.16C169.064 374.8 169.544 374.307 169.891 373.68C170.251 373.04 170.431 372.327 170.431 371.54C170.431 370.74 170.251 370.027 169.891 369.4C169.544 368.773 169.064 368.28 168.451 367.92C167.851 367.547 167.164 367.36 166.391 367.36C165.631 367.36 164.944 367.547 164.331 367.92C163.718 368.28 163.231 368.773 162.871 369.4C162.511 370.027 162.331 370.74 162.331 371.54C162.331 372.327 162.511 373.04 162.871 373.68C163.231 374.307 163.718 374.8 164.331 375.16C164.944 375.52 165.631 375.7 166.391 375.7ZM178.816 377C178.109 377 177.476 376.833 176.916 376.5C176.369 376.167 175.936 375.713 175.616 375.14C175.296 374.553 175.136 373.887 175.136 373.14V367.8H173.836C173.636 367.8 173.469 367.74 173.336 367.62C173.203 367.487 173.136 367.327 173.136 367.14C173.136 366.94 173.203 366.78 173.336 366.66C173.469 366.527 173.636 366.46 173.836 366.46H175.136V363.36C175.136 363.133 175.203 362.947 175.336 362.8C175.483 362.653 175.669 362.58 175.896 362.58C176.123 362.58 176.309 362.653 176.456 362.8C176.603 362.947 176.676 363.133 176.676 363.36V366.46H178.936C179.136 366.46 179.303 366.527 179.436 366.66C179.569 366.78 179.636 366.94 179.636 367.14C179.636 367.327 179.569 367.487 179.436 367.62C179.303 367.74 179.136 367.8 178.936 367.8H176.676V373.14C176.676 373.82 176.876 374.38 177.276 374.82C177.676 375.247 178.189 375.46 178.816 375.46H179.356C179.569 375.46 179.743 375.533 179.876 375.68C180.009 375.827 180.076 376.013 180.076 376.24C180.076 376.467 179.996 376.653 179.836 376.8C179.676 376.933 179.476 377 179.236 377H178.816ZM183.273 377C183.033 377 182.84 376.933 182.693 376.8C182.56 376.653 182.493 376.46 182.493 376.22V366.84C182.493 366.6 182.56 366.413 182.693 366.28C182.84 366.133 183.033 366.06 183.273 366.06C183.5 366.06 183.68 366.133 183.813 366.28C183.96 366.413 184.033 366.6 184.033 366.84V376.22C184.033 376.46 183.96 376.653 183.813 376.8C183.68 376.933 183.5 377 183.273 377ZM183.253 363.98C182.96 363.98 182.706 363.873 182.493 363.66C182.28 363.447 182.173 363.187 182.173 362.88C182.173 362.547 182.28 362.287 182.493 362.1C182.72 361.9 182.98 361.8 183.273 361.8C183.553 361.8 183.8 361.9 184.013 362.1C184.24 362.287 184.353 362.547 184.353 362.88C184.353 363.187 184.246 363.447 184.033 363.66C183.82 363.873 183.56 363.98 183.253 363.98ZM192.524 377.1C191.458 377.1 190.504 376.86 189.664 376.38C188.824 375.9 188.164 375.24 187.684 374.4C187.204 373.56 186.964 372.607 186.964 371.54C186.964 370.46 187.204 369.5 187.684 368.66C188.164 367.82 188.824 367.16 189.664 366.68C190.504 366.2 191.458 365.96 192.524 365.96C193.591 365.96 194.538 366.2 195.364 366.68C196.204 367.16 196.864 367.82 197.344 368.66C197.824 369.5 198.071 370.46 198.084 371.54C198.084 372.607 197.838 373.56 197.344 374.4C196.864 375.24 196.204 375.9 195.364 376.38C194.538 376.86 193.591 377.1 192.524 377.1ZM192.524 375.7C193.298 375.7 193.991 375.52 194.604 375.16C195.218 374.8 195.698 374.307 196.044 373.68C196.391 373.053 196.564 372.34 196.564 371.54C196.564 370.74 196.391 370.027 196.044 369.4C195.698 368.76 195.218 368.26 194.604 367.9C193.991 367.54 193.298 367.36 192.524 367.36C191.751 367.36 191.058 367.54 190.444 367.9C189.831 368.26 189.344 368.76 188.984 369.4C188.638 370.027 188.464 370.74 188.464 371.54C188.464 372.34 188.638 373.053 188.984 373.68C189.344 374.307 189.831 374.8 190.444 375.16C191.058 375.52 191.751 375.7 192.524 375.7ZM201.449 377C201.209 377 201.016 376.933 200.869 376.8C200.736 376.653 200.669 376.467 200.669 376.24V366.84C200.669 366.6 200.736 366.413 200.869 366.28C201.016 366.133 201.209 366.06 201.449 366.06C201.676 366.06 201.856 366.133 201.989 366.28C202.136 366.413 202.209 366.6 202.209 366.84V367.52C202.636 367.027 203.163 366.64 203.789 366.36C204.429 366.08 205.116 365.94 205.849 365.94C206.796 365.94 207.643 366.14 208.389 366.54C209.136 366.927 209.723 367.5 210.149 368.26C210.589 369.02 210.809 369.947 210.809 371.04V376.24C210.809 376.453 210.736 376.633 210.589 376.78C210.443 376.927 210.263 377 210.049 377C209.823 377 209.636 376.927 209.489 376.78C209.343 376.633 209.269 376.453 209.269 376.24V371.04C209.269 369.8 208.923 368.887 208.229 368.3C207.549 367.7 206.703 367.4 205.689 367.4C205.036 367.4 204.443 367.527 203.909 367.78C203.389 368.033 202.976 368.38 202.669 368.82C202.363 369.26 202.209 369.76 202.209 370.32V376.24C202.209 376.467 202.136 376.653 201.989 376.8C201.856 376.933 201.676 377 201.449 377ZM218.984 377C218.771 377 218.584 376.927 218.424 376.78C218.277 376.62 218.204 376.433 218.204 376.22V362.16C218.204 361.933 218.277 361.747 218.424 361.6C218.571 361.453 218.757 361.38 218.984 361.38H228.364C228.591 361.38 228.777 361.453 228.924 361.6C229.071 361.733 229.144 361.913 229.144 362.14C229.144 362.34 229.071 362.513 228.924 362.66C228.777 362.807 228.591 362.88 228.364 362.88H219.764V368.4H226.024C226.251 368.4 226.437 368.473 226.584 368.62C226.731 368.767 226.804 368.947 226.804 369.16C226.804 369.373 226.731 369.553 226.584 369.7C226.437 369.847 226.251 369.92 226.024 369.92H219.764V376.22C219.764 376.433 219.691 376.62 219.544 376.78C219.397 376.927 219.211 377 218.984 377ZM236.154 377.1C235.127 377.1 234.207 376.86 233.394 376.38C232.581 375.887 231.934 375.22 231.454 374.38C230.987 373.54 230.754 372.593 230.754 371.54C230.754 370.473 230.994 369.52 231.474 368.68C231.967 367.84 232.634 367.18 233.474 366.7C234.314 366.207 235.261 365.96 236.314 365.96C237.367 365.96 238.307 366.207 239.134 366.7C239.974 367.18 240.634 367.84 241.114 368.68C241.607 369.52 241.861 370.473 241.874 371.54V376.24C241.874 376.467 241.801 376.653 241.654 376.8C241.507 376.933 241.321 377 241.094 377C240.867 377 240.681 376.933 240.534 376.8C240.387 376.653 240.314 376.467 240.314 376.24V375.02C239.861 375.66 239.274 376.167 238.554 376.54C237.834 376.913 237.034 377.1 236.154 377.1ZM236.314 375.7C237.087 375.7 237.774 375.52 238.374 375.16C238.987 374.8 239.467 374.307 239.814 373.68C240.174 373.04 240.354 372.327 240.354 371.54C240.354 370.74 240.174 370.027 239.814 369.4C239.467 368.773 238.987 368.28 238.374 367.92C237.774 367.547 237.087 367.36 236.314 367.36C235.554 367.36 234.867 367.547 234.254 367.92C233.641 368.28 233.154 368.773 232.794 369.4C232.434 370.027 232.254 370.74 232.254 371.54C232.254 372.327 232.434 373.04 232.794 373.68C233.154 374.307 233.641 374.8 234.254 375.16C234.867 375.52 235.554 375.7 236.314 375.7ZM245.559 377C245.319 377 245.126 376.933 244.979 376.8C244.846 376.653 244.779 376.46 244.779 376.22V366.84C244.779 366.6 244.846 366.413 244.979 366.28C245.126 366.133 245.319 366.06 245.559 366.06C245.786 366.06 245.966 366.133 246.099 366.28C246.246 366.413 246.319 366.6 246.319 366.84V376.22C246.319 376.46 246.246 376.653 246.099 376.8C245.966 376.933 245.786 377 245.559 377ZM245.539 363.98C245.246 363.98 244.992 363.873 244.779 363.66C244.566 363.447 244.459 363.187 244.459 362.88C244.459 362.547 244.566 362.287 244.779 362.1C245.006 361.9 245.266 361.8 245.559 361.8C245.839 361.8 246.086 361.9 246.299 362.1C246.526 362.287 246.639 362.547 246.639 362.88C246.639 363.187 246.532 363.447 246.319 363.66C246.106 363.873 245.846 363.98 245.539 363.98ZM252.19 377C251.39 377 250.73 376.68 250.21 376.04C249.69 375.387 249.43 374.553 249.43 373.54V362.14C249.43 361.913 249.497 361.733 249.63 361.6C249.777 361.453 249.964 361.38 250.19 361.38C250.417 361.38 250.597 361.453 250.73 361.6C250.877 361.733 250.95 361.913 250.95 362.14V373.54C250.95 374.113 251.064 374.58 251.29 374.94C251.53 375.3 251.83 375.48 252.19 375.48H252.69C252.89 375.48 253.05 375.553 253.17 375.7C253.29 375.833 253.35 376.013 253.35 376.24C253.35 376.467 253.264 376.653 253.09 376.8C252.93 376.933 252.717 377 252.45 377H252.19ZM259.419 377.1C258.339 377.1 257.379 376.867 256.539 376.4C255.713 375.92 255.059 375.26 254.579 374.42C254.113 373.58 253.879 372.62 253.879 371.54C253.879 370.447 254.099 369.487 254.539 368.66C254.993 367.82 255.613 367.16 256.399 366.68C257.186 366.2 258.093 365.96 259.119 365.96C260.133 365.96 261.013 366.193 261.759 366.66C262.519 367.113 263.106 367.747 263.519 368.56C263.933 369.373 264.139 370.3 264.139 371.34C264.139 371.553 264.073 371.727 263.939 371.86C263.806 371.98 263.633 372.04 263.419 372.04H255.339C255.419 372.76 255.639 373.4 255.999 373.96C256.359 374.507 256.833 374.94 257.419 375.26C258.006 375.567 258.673 375.72 259.419 375.72C259.899 375.72 260.379 375.64 260.859 375.48C261.353 375.307 261.746 375.093 262.039 374.84C262.186 374.72 262.353 374.66 262.539 374.66C262.726 374.647 262.886 374.693 263.019 374.8C263.193 374.96 263.279 375.133 263.279 375.32C263.293 375.507 263.219 375.667 263.059 375.8C262.619 376.173 262.059 376.487 261.379 376.74C260.699 376.98 260.046 377.1 259.419 377.1ZM259.119 367.34C258.093 367.34 257.246 367.66 256.579 368.3C255.913 368.927 255.513 369.747 255.379 370.76H262.699C262.593 369.747 262.219 368.927 261.579 368.3C260.953 367.66 260.133 367.34 259.119 367.34ZM270.924 377.1C269.871 377.1 268.924 376.86 268.084 376.38C267.244 375.887 266.577 375.22 266.084 374.38C265.604 373.54 265.364 372.587 265.364 371.52C265.364 370.467 265.597 369.52 266.064 368.68C266.544 367.84 267.191 367.18 268.004 366.7C268.817 366.207 269.737 365.96 270.764 365.96C271.657 365.96 272.464 366.153 273.184 366.54C273.904 366.913 274.484 367.413 274.924 368.04V362.16C274.924 361.92 274.997 361.733 275.144 361.6C275.291 361.453 275.477 361.38 275.704 361.38C275.931 361.38 276.117 361.453 276.264 361.6C276.411 361.733 276.484 361.92 276.484 362.16V371.6C276.457 372.64 276.197 373.58 275.704 374.42C275.224 375.247 274.564 375.9 273.724 376.38C272.897 376.86 271.964 377.1 270.924 377.1ZM270.924 375.7C271.697 375.7 272.384 375.52 272.984 375.16C273.597 374.787 274.077 374.287 274.424 373.66C274.784 373.033 274.964 372.32 274.964 371.52C274.964 370.733 274.784 370.027 274.424 369.4C274.077 368.76 273.597 368.26 272.984 367.9C272.384 367.54 271.697 367.36 270.924 367.36C270.164 367.36 269.477 367.54 268.864 367.9C268.251 368.26 267.764 368.76 267.404 369.4C267.044 370.027 266.864 370.733 266.864 371.52C266.864 372.32 267.044 373.033 267.404 373.66C267.764 374.287 268.251 374.787 268.864 375.16C269.477 375.52 270.164 375.7 270.924 375.7Z" fill="black"/>
<path d="M151.017 628.531H142.707V643.469H151.017V628.531Z" fill="#FF5F00"/>
<path d="M143.235 636C143.234 634.561 143.559 633.141 144.188 631.847C144.816 630.553 145.731 629.419 146.862 628.531C145.461 627.43 143.779 626.744 142.007 626.554C140.235 626.364 138.445 626.676 136.843 627.455C135.24 628.234 133.889 629.449 132.943 630.96C131.998 632.471 131.496 634.217 131.496 636C131.496 637.783 131.998 639.529 132.943 641.04C133.889 642.551 135.24 643.766 136.843 644.545C138.445 645.324 140.235 645.636 142.007 645.446C143.779 645.256 145.461 644.57 146.862 643.469C145.731 642.581 144.816 641.447 144.188 640.153C143.559 638.859 143.234 637.439 143.235 636V636Z" fill="#EB001B"/>
<path d="M162.228 636C162.228 637.783 161.726 639.529 160.781 641.04C159.836 642.551 158.484 643.766 156.882 644.545C155.279 645.324 153.489 645.636 151.718 645.446C149.946 645.256 148.263 644.57 146.862 643.469C147.993 642.58 148.906 641.446 149.535 640.152C150.163 638.858 150.49 637.438 150.49 636C150.49 634.562 150.163 633.142 149.535 631.848C148.906 630.554 147.993 629.42 146.862 628.531C148.263 627.43 149.946 626.744 151.718 626.554C153.489 626.364 155.279 626.676 156.882 627.455C158.484 628.234 159.836 629.449 160.781 630.96C161.726 632.471 162.228 634.217 162.228 636V636Z" fill="#F79E1B"/>
<path d="M161.321 641.887V641.581H161.445V641.519H161.131V641.581H161.254V641.887H161.321ZM161.931 641.887V641.518H161.835L161.724 641.772L161.613 641.518H161.517V641.887H161.585V641.609L161.689 641.848H161.759L161.863 641.608V641.887H161.931Z" fill="#F79E1B"/>
<path d="M171.9 645.553H171.549V642.348V635.936V629.525V626.319H171.9V632.731V639.142V645.553Z" fill="black"/>
<path d="M181.633 641.887H180.646V630.557H181.633V641.887ZM188.833 630.557C189.699 630.545 190.561 630.679 191.382 630.954C192.095 631.194 192.751 631.58 193.307 632.087C193.84 632.585 194.257 633.194 194.529 633.871C195.101 635.386 195.101 637.058 194.529 638.573C194.258 639.25 193.841 639.86 193.307 640.358C192.751 640.865 192.095 641.251 191.382 641.491C190.561 641.765 189.699 641.899 188.833 641.887H184.699V630.557H188.833ZM185.686 631.496V640.948H188.833C189.575 640.961 190.314 640.848 191.018 640.612C191.61 640.412 192.153 640.088 192.611 639.662C193.047 639.246 193.381 638.737 193.59 638.172C194.032 636.91 194.032 635.534 193.59 634.272C193.381 633.707 193.046 633.196 192.611 632.779C192.155 632.351 191.611 632.027 191.018 631.828C190.313 631.595 189.575 631.483 188.833 631.496L185.686 631.496ZM206.429 630.428C206.903 630.427 207.375 630.481 207.837 630.59C208.278 630.694 208.706 630.85 209.111 631.055C209.499 631.252 209.861 631.498 210.187 631.787C210.505 632.071 210.782 632.398 211.008 632.759L210.183 633.309C209.989 633.012 209.756 632.743 209.491 632.508C209.223 632.27 208.927 632.066 208.609 631.901C208.281 631.731 207.933 631.602 207.574 631.516C207.199 631.427 206.814 631.382 206.429 631.383C205.785 631.377 205.147 631.495 204.548 631.731C203.982 631.954 203.467 632.29 203.035 632.718C202.599 633.155 202.255 633.675 202.024 634.248C201.533 635.518 201.533 636.926 202.024 638.197C202.255 638.769 202.599 639.289 203.035 639.726C203.467 640.155 203.982 640.491 204.548 640.714C205.147 640.949 205.785 641.067 206.429 641.062C206.813 641.063 207.196 641.019 207.57 640.932C207.928 640.849 208.275 640.721 208.601 640.552C208.919 640.387 209.215 640.183 209.483 639.945C209.75 639.708 209.982 639.436 210.175 639.136L210.984 639.726C210.748 640.08 210.467 640.401 210.146 640.681C209.821 640.964 209.463 641.206 209.079 641.402C208.679 641.604 208.257 641.758 207.821 641.859C206.59 642.139 205.304 642.045 204.127 641.588C203.441 641.316 202.815 640.91 202.287 640.394C201.762 639.873 201.347 639.251 201.069 638.565C200.482 637.06 200.482 635.389 201.069 633.884C201.347 633.196 201.761 632.573 202.287 632.05C202.815 631.534 203.441 631.128 204.127 630.857C204.86 630.567 205.641 630.421 206.429 630.428H206.429ZM214.042 635.591C214.186 635.351 214.365 635.133 214.572 634.944C214.769 634.763 214.991 634.612 215.231 634.494C215.468 634.379 215.717 634.292 215.975 634.236C216.23 634.179 216.491 634.151 216.752 634.15C217.195 634.145 217.636 634.218 218.054 634.365C218.431 634.497 218.776 634.705 219.07 634.976C219.357 635.246 219.58 635.576 219.725 635.943C219.883 636.349 219.962 636.782 219.956 637.218V641.887H219.033V637.501C219.038 637.149 218.983 636.799 218.871 636.465C218.773 636.172 218.609 635.905 218.394 635.684C218.177 635.467 217.915 635.299 217.626 635.194C217.293 635.076 216.943 635.019 216.59 635.024C216.248 635.022 215.91 635.084 215.591 635.207C215.289 635.323 215.014 635.499 214.782 635.725C214.55 635.953 214.365 636.225 214.24 636.526C214.105 636.85 214.037 637.198 214.042 637.549V641.887H213.119V630.234H214.042L214.042 635.591ZM225.441 634.15C225.926 634.146 226.407 634.244 226.852 634.438C227.278 634.624 227.661 634.897 227.977 635.239C228.302 635.598 228.556 636.015 228.725 636.469C228.913 636.97 229.009 637.5 229.008 638.035C229.008 638.105 229.007 638.171 229.004 638.233C229.001 638.295 228.997 638.356 228.992 638.415H222.609C222.633 638.824 222.733 639.225 222.904 639.597C223.059 639.929 223.278 640.227 223.548 640.475C223.812 640.715 224.121 640.901 224.457 641.021C224.809 641.147 225.18 641.21 225.554 641.207C226.047 641.216 226.535 641.116 226.986 640.916C227.409 640.72 227.795 640.451 228.126 640.123L228.62 640.754C228.395 640.982 228.147 641.185 227.88 641.361C227.638 641.518 227.381 641.648 227.111 641.749C226.853 641.846 226.586 641.913 226.314 641.952C226.043 641.99 225.771 642.008 225.497 642.008C224.971 642.014 224.449 641.916 223.96 641.721C223.505 641.539 223.092 641.265 222.747 640.916C222.401 640.561 222.131 640.14 221.954 639.678C221.76 639.169 221.664 638.628 221.671 638.083C221.665 637.543 221.762 637.006 221.958 636.501C222.137 636.038 222.406 635.614 222.75 635.255C223.09 634.905 223.498 634.629 223.948 634.442C224.421 634.245 224.928 634.146 225.441 634.15H225.441ZM225.424 634.968C225.06 634.963 224.699 635.031 224.36 635.166C224.046 635.294 223.759 635.481 223.515 635.716C223.268 635.957 223.066 636.241 222.921 636.554C222.763 636.891 222.663 637.252 222.625 637.622H228.07C228.043 637.25 227.952 636.884 227.803 636.542C227.667 636.229 227.473 635.945 227.232 635.704C226.995 635.468 226.712 635.281 226.402 635.155C226.092 635.029 225.759 634.965 225.424 634.968V634.968ZM234.315 634.15C234.854 634.145 235.389 634.248 235.888 634.454C236.361 634.649 236.783 634.949 237.122 635.332L236.523 635.955C236.236 635.665 235.897 635.43 235.524 635.263C235.135 635.095 234.715 635.011 234.291 635.016C233.892 635.013 233.497 635.092 233.13 635.247C232.779 635.396 232.461 635.613 232.195 635.886C231.927 636.166 231.716 636.496 231.576 636.857C231.28 637.648 231.28 638.519 231.576 639.309C231.713 639.668 231.922 639.995 232.189 640.27C232.456 640.545 232.776 640.764 233.13 640.912C233.497 641.067 233.892 641.146 234.291 641.143C234.721 641.147 235.147 641.059 235.541 640.884C235.914 640.715 236.255 640.483 236.548 640.196L237.122 640.827C236.78 641.208 236.357 641.508 235.884 641.705C234.876 642.108 233.751 642.11 232.741 641.709C232.279 641.521 231.86 641.241 231.509 640.885C231.159 640.53 230.884 640.106 230.703 639.641C230.32 638.637 230.32 637.526 230.703 636.522C230.883 636.055 231.157 635.631 231.508 635.275C231.858 634.919 232.278 634.638 232.741 634.45C233.241 634.246 233.776 634.144 234.315 634.15H234.315ZM239.897 637.485H241.135L244.338 634.272H245.503L241.879 637.865L245.568 641.887H244.395L241.135 638.318H239.897V641.887H238.974V630.234H239.897V637.485Z" fill="black"/>
<g clip-path="url(#clip0)">
<path d="M78 -2H297V-2C294.894 -1.39731 293.418 0.495246 293.345 2.68446L293.317 3.5618V3.5618C293.317 17.0587 282.375 28 268.878 28H106.122C92.6249 28 81.6835 17.0587 81.6835 3.5618V3.5618L81.6545 2.68447C81.5823 0.49525 80.1059 -1.39731 78 -2V-2Z" fill="#0F0E0D"/>
<path opacity="0.35" d="M338.667 17.8333H355.333C356.53 17.8333 357.5 18.8033 357.5 19.9999V25.9999C357.5 27.1965 356.53 28.1666 355.333 28.1666H338.667C337.47 28.1666 336.5 27.1965 336.5 25.9999V19.9999C336.5 18.8033 337.47 17.8333 338.667 17.8333Z" stroke="#0F0E0D"/>
<path opacity="0.4" d="M359 21V25C359.805 24.6612 360.328 23.8731 360.328 23C360.328 22.1269 359.805 21.3388 359 21" fill="#0F0E0D"/>
<path d="M338 20.6666C338 19.9302 338.597 19.3333 339.333 19.3333H354.667C355.403 19.3333 356 19.9302 356 20.6666V25.3333C356 26.0696 355.403 26.6666 354.667 26.6666H339.333C338.597 26.6666 338 26.0696 338 25.3333V20.6666Z" fill="#0F0E0D"/>
<path fill-rule="evenodd" clip-rule="evenodd" d="M323.33 19.6079C325.546 19.608 327.678 20.4594 329.283 21.9862C329.404 22.1041 329.598 22.1026 329.717 21.9829L330.873 20.8162C330.933 20.7555 330.967 20.6733 330.966 20.5877C330.966 20.5021 330.931 20.4202 330.87 20.3602C326.655 16.3207 320.005 16.3207 315.79 20.3602C315.729 20.4202 315.694 20.502 315.694 20.5876C315.693 20.6732 315.727 20.7555 315.787 20.8162L316.943 21.9829C317.062 22.1028 317.256 22.1043 317.377 21.9862C318.983 20.4593 321.114 19.6079 323.33 19.6079ZM323.33 23.4036C324.548 23.4035 325.722 23.856 326.624 24.6732C326.747 24.7892 326.939 24.7867 327.058 24.6676L328.212 23.5009C328.273 23.4397 328.307 23.3567 328.306 23.2704C328.305 23.1842 328.27 23.1018 328.208 23.0419C325.46 20.4855 321.204 20.4855 318.455 23.0419C318.393 23.1018 318.358 23.1842 318.357 23.2705C318.356 23.3568 318.39 23.4398 318.451 23.5009L319.605 24.6676C319.724 24.7867 319.917 24.7892 320.039 24.6732C320.941 23.8566 322.114 23.4041 323.33 23.4036ZM325.643 25.9574C325.645 26.0439 325.611 26.1273 325.549 26.1879L323.552 28.2036C323.494 28.2628 323.414 28.2961 323.33 28.2961C323.247 28.2961 323.167 28.2628 323.109 28.2036L321.111 26.1879C321.049 26.1272 321.015 26.0438 321.017 25.9573C321.019 25.8708 321.057 25.7889 321.121 25.7309C322.396 24.652 324.265 24.652 325.54 25.7309C325.604 25.7889 325.642 25.8709 325.643 25.9574Z" fill="#0F0E0D"/>
<path fill-rule="evenodd" clip-rule="evenodd" d="M309.667 17.6665H308.667C308.114 17.6665 307.667 18.1142 307.667 18.6665V27.3332C307.667 27.8855 308.114 28.3332 308.667 28.3332H309.667C310.219 28.3332 310.667 27.8855 310.667 27.3332V18.6665C310.667 18.1142 310.219 17.6665 309.667 17.6665ZM304 19.9998H305C305.552 19.9998 306 20.4476 306 20.9998V27.3332C306 27.8855 305.552 28.3332 305 28.3332H304C303.448 28.3332 303 27.8855 303 27.3332V20.9998C303 20.4476 303.448 19.9998 304 19.9998ZM300.333 22.3332H299.333C298.781 22.3332 298.333 22.7809 298.333 23.3332V27.3332C298.333 27.8855 298.781 28.3332 299.333 28.3332H300.333C300.886 28.3332 301.333 27.8855 301.333 27.3332V23.3332C301.333 22.7809 300.886 22.3332 300.333 22.3332ZM295.667 24.3332H294.667C294.114 24.3332 293.667 24.7809 293.667 25.3332V27.3332C293.667 27.8855 294.114 28.3332 294.667 28.3332H295.667C296.219 28.3332 296.667 27.8855 296.667 27.3332V25.3332C296.667 24.7809 296.219 24.3332 295.667 24.3332Z" fill="#0F0E0D"/>
<path d="M37.3208 28.2563C40.0088 28.2563 41.6055 26.1543 41.6055 22.5947C41.6055 21.2544 41.3491 20.1265 40.8584 19.2549C40.1479 17.8999 38.9248 17.1675 37.3794 17.1675C35.0796 17.1675 33.4536 18.7129 33.4536 20.8809C33.4536 22.917 34.9185 24.3965 36.9326 24.3965C38.1704 24.3965 39.1738 23.8179 39.6719 22.8145H39.6938C39.6938 22.8145 39.7231 22.8145 39.7305 22.8145C39.7451 22.8145 39.7964 22.8145 39.7964 22.8145C39.7964 25.2314 38.8809 26.6743 37.3354 26.6743C36.4272 26.6743 35.7241 26.1763 35.4824 25.3779H33.6001C33.915 27.1138 35.3872 28.2563 37.3208 28.2563ZM37.3867 22.895C36.1709 22.895 35.3066 22.0308 35.3066 20.8223C35.3066 19.6431 36.2148 18.7422 37.394 18.7422C38.5732 18.7422 39.4814 19.6577 39.4814 20.8516C39.4814 22.0308 38.5952 22.895 37.3867 22.895Z" fill="#0F0E0D"/>
<path d="M44.6966 28.1538C45.3924 28.1538 45.8685 27.6558 45.8685 26.9966C45.8685 26.3301 45.3924 25.8394 44.6966 25.8394C44.0081 25.8394 43.5247 26.3301 43.5247 26.9966C43.5247 27.6558 44.0081 28.1538 44.6966 28.1538ZM44.6966 22.6606C45.3924 22.6606 45.8685 22.1699 45.8685 21.5107C45.8685 20.8442 45.3924 20.3535 44.6966 20.3535C44.0081 20.3535 43.5247 20.8442 43.5247 21.5107C43.5247 22.1699 44.0081 22.6606 44.6966 22.6606Z" fill="#0F0E0D"/>
<path d="M52.7242 28H54.5333V26.0298H55.9615V24.4331H54.5333V17.4312H51.8673C49.9996 20.2437 48.5128 22.5947 47.5606 24.3452V26.0298H52.7242V28ZM49.3111 24.3672C50.5416 22.1992 51.6402 20.4634 52.651 18.9692H52.7535V24.4771H49.3111V24.3672Z" fill="#0F0E0D"/>
<path d="M59.9901 28H61.8798V17.4312H59.9975L57.2362 19.3647V21.1812L59.8656 19.3354H59.9901V28Z" fill="#0F0E0D"/>
</g>
<defs>
<clipPath id="clip0">
<rect width="375" height="44" fill="white"/>
</clipPath>
</defs>
</svg>
