<svg width="375" height="812" viewBox="0 0 375 812" fill="none" xmlns="http://www.w3.org/2000/svg">
<rect width="375" height="812" fill="white"/>
<rect x="120" y="797" width="135" height="5" rx="2.5" fill="black"/>
<path d="M155.63 377C155.297 377 155.057 376.833 154.91 376.5L148.97 362.6C148.824 362.227 148.81 361.933 148.93 361.72C149.064 361.493 149.29 361.38 149.61 361.38C149.944 361.38 150.184 361.547 150.33 361.88L155.85 375.08H155.41L160.91 361.92C160.99 361.72 161.09 361.58 161.21 361.5C161.33 361.42 161.49 361.38 161.69 361.38C161.997 361.38 162.204 361.5 162.31 361.74C162.417 361.967 162.41 362.227 162.29 362.52L156.33 376.5C156.25 376.687 156.15 376.82 156.03 376.9C155.91 376.967 155.777 377 155.63 377ZM166.91 377.1C165.83 377.1 164.87 376.867 164.03 376.4C163.203 375.92 162.55 375.26 162.07 374.42C161.603 373.58 161.37 372.62 161.37 371.54C161.37 370.447 161.59 369.487 162.03 368.66C162.483 367.82 163.103 367.16 163.89 366.68C164.677 366.2 165.583 365.96 166.61 365.96C167.623 365.96 168.503 366.193 169.25 366.66C170.01 367.113 170.597 367.747 171.01 368.56C171.423 369.373 171.63 370.3 171.63 371.34C171.63 371.553 171.563 371.727 171.43 371.86C171.297 371.98 171.123 372.04 170.91 372.04H162.41V370.76H171.07L170.21 371.38C170.223 370.607 170.083 369.913 169.79 369.3C169.497 368.687 169.077 368.207 168.53 367.86C167.997 367.513 167.357 367.34 166.61 367.34C165.85 367.34 165.183 367.52 164.61 367.88C164.037 368.24 163.59 368.74 163.27 369.38C162.963 370.007 162.81 370.727 162.81 371.54C162.81 372.353 162.983 373.073 163.33 373.7C163.69 374.327 164.177 374.82 164.79 375.18C165.403 375.54 166.11 375.72 166.91 375.72C167.39 375.72 167.87 375.64 168.35 375.48C168.843 375.307 169.237 375.093 169.53 374.84C169.677 374.72 169.843 374.66 170.03 374.66C170.217 374.647 170.377 374.693 170.51 374.8C170.683 374.96 170.77 375.133 170.77 375.32C170.783 375.507 170.71 375.667 170.55 375.8C170.11 376.173 169.55 376.487 168.87 376.74C168.19 376.98 167.537 377.1 166.91 377.1ZM174.465 370.26C174.505 369.433 174.718 368.693 175.105 368.04C175.505 367.387 176.018 366.873 176.645 366.5C177.285 366.127 177.992 365.94 178.765 365.94C179.378 365.94 179.852 366.027 180.185 366.2C180.518 366.373 180.645 366.627 180.565 366.96C180.512 367.16 180.418 367.293 180.285 367.36C180.165 367.427 180.012 367.453 179.825 367.44C179.652 367.427 179.452 367.413 179.225 367.4C178.478 367.333 177.812 367.413 177.225 367.64C176.652 367.853 176.192 368.187 175.845 368.64C175.512 369.093 175.345 369.633 175.345 370.26H174.465ZM174.585 377C174.345 377 174.158 376.933 174.025 376.8C173.892 376.667 173.825 376.48 173.825 376.24V366.82C173.825 366.58 173.892 366.393 174.025 366.26C174.158 366.127 174.345 366.06 174.585 366.06C174.825 366.06 175.012 366.127 175.145 366.26C175.278 366.393 175.345 366.58 175.345 366.82V376.24C175.345 376.48 175.278 376.667 175.145 376.8C175.012 376.933 174.825 377 174.585 377ZM183.675 377C183.435 377 183.242 376.933 183.095 376.8C182.962 376.653 182.895 376.46 182.895 376.22V366.84C182.895 366.6 182.962 366.413 183.095 366.28C183.242 366.133 183.435 366.06 183.675 366.06C183.902 366.06 184.082 366.133 184.215 366.28C184.362 366.413 184.435 366.6 184.435 366.84V376.22C184.435 376.46 184.362 376.653 184.215 376.8C184.082 376.933 183.902 377 183.675 377ZM183.655 363.98C183.362 363.98 183.108 363.873 182.895 363.66C182.682 363.447 182.575 363.187 182.575 362.88C182.575 362.547 182.682 362.287 182.895 362.1C183.122 361.9 183.382 361.8 183.675 361.8C183.955 361.8 184.202 361.9 184.415 362.1C184.642 362.287 184.755 362.547 184.755 362.88C184.755 363.187 184.648 363.447 184.435 363.66C184.222 363.873 183.962 363.98 183.655 363.98ZM189.306 377C189.106 377 188.933 376.933 188.786 376.8C188.64 376.653 188.566 376.46 188.566 376.22V366.08C188.566 365.147 188.726 364.327 189.046 363.62C189.366 362.913 189.84 362.367 190.466 361.98C191.093 361.58 191.86 361.38 192.766 361.38C192.993 361.38 193.18 361.447 193.326 361.58C193.473 361.713 193.546 361.88 193.546 362.08C193.546 362.28 193.473 362.447 193.326 362.58C193.18 362.713 192.993 362.78 192.766 362.78C192.166 362.78 191.666 362.92 191.266 363.2C190.88 363.467 190.586 363.847 190.386 364.34C190.2 364.82 190.106 365.373 190.106 366V376.22C190.106 376.46 190.033 376.653 189.886 376.8C189.753 376.933 189.56 377 189.306 377ZM187.286 367.8C187.073 367.8 186.9 367.74 186.766 367.62C186.646 367.487 186.586 367.327 186.586 367.14C186.586 366.94 186.646 366.78 186.766 366.66C186.9 366.527 187.073 366.46 187.286 366.46H192.506C192.72 366.46 192.886 366.527 193.006 366.66C193.14 366.78 193.206 366.94 193.206 367.14C193.206 367.327 193.14 367.487 193.006 367.62C192.886 367.74 192.72 367.8 192.506 367.8H187.286ZM195.961 377C195.721 377 195.527 376.933 195.381 376.8C195.247 376.653 195.181 376.46 195.181 376.22V366.84C195.181 366.6 195.247 366.413 195.381 366.28C195.527 366.133 195.721 366.06 195.961 366.06C196.187 366.06 196.367 366.133 196.501 366.28C196.647 366.413 196.721 366.6 196.721 366.84V376.22C196.721 376.46 196.647 376.653 196.501 376.8C196.367 376.933 196.187 377 195.961 377ZM195.941 363.98C195.647 363.98 195.394 363.873 195.181 363.66C194.967 363.447 194.861 363.187 194.861 362.88C194.861 362.547 194.967 362.287 195.181 362.1C195.407 361.9 195.667 361.8 195.961 361.8C196.241 361.8 196.487 361.9 196.701 362.1C196.927 362.287 197.041 362.547 197.041 362.88C197.041 363.187 196.934 363.447 196.721 363.66C196.507 363.873 196.247 363.98 195.941 363.98ZM205.192 377.1C204.112 377.1 203.152 376.867 202.312 376.4C201.485 375.92 200.832 375.26 200.352 374.42C199.885 373.58 199.652 372.62 199.652 371.54C199.652 370.447 199.872 369.487 200.312 368.66C200.765 367.82 201.385 367.16 202.172 366.68C202.959 366.2 203.865 365.96 204.892 365.96C205.905 365.96 206.785 366.193 207.532 366.66C208.292 367.113 208.879 367.747 209.292 368.56C209.705 369.373 209.912 370.3 209.912 371.34C209.912 371.553 209.845 371.727 209.712 371.86C209.579 371.98 209.405 372.04 209.192 372.04H200.692V370.76H209.352L208.492 371.38C208.505 370.607 208.365 369.913 208.072 369.3C207.779 368.687 207.359 368.207 206.812 367.86C206.279 367.513 205.639 367.34 204.892 367.34C204.132 367.34 203.465 367.52 202.892 367.88C202.319 368.24 201.872 368.74 201.552 369.38C201.245 370.007 201.092 370.727 201.092 371.54C201.092 372.353 201.265 373.073 201.612 373.7C201.972 374.327 202.459 374.82 203.072 375.18C203.685 375.54 204.392 375.72 205.192 375.72C205.672 375.72 206.152 375.64 206.632 375.48C207.125 375.307 207.519 375.093 207.812 374.84C207.959 374.72 208.125 374.66 208.312 374.66C208.499 374.647 208.659 374.693 208.792 374.8C208.965 374.96 209.052 375.133 209.052 375.32C209.065 375.507 208.992 375.667 208.832 375.8C208.392 376.173 207.832 376.487 207.152 376.74C206.472 376.98 205.819 377.1 205.192 377.1ZM216.696 377.1C215.643 377.1 214.696 376.86 213.856 376.38C213.016 375.887 212.35 375.22 211.856 374.38C211.376 373.54 211.136 372.587 211.136 371.52C211.136 370.467 211.37 369.52 211.836 368.68C212.316 367.84 212.963 367.18 213.776 366.7C214.59 366.207 215.51 365.96 216.536 365.96C217.43 365.96 218.236 366.153 218.956 366.54C219.676 366.913 220.256 367.413 220.696 368.04V362.16C220.696 361.92 220.77 361.733 220.916 361.6C221.063 361.453 221.25 361.38 221.476 361.38C221.703 361.38 221.89 361.453 222.036 361.6C222.183 361.733 222.256 361.92 222.256 362.16V371.6C222.23 372.64 221.97 373.58 221.476 374.42C220.996 375.247 220.336 375.9 219.496 376.38C218.67 376.86 217.736 377.1 216.696 377.1ZM216.696 375.7C217.47 375.7 218.156 375.52 218.756 375.16C219.37 374.787 219.85 374.287 220.196 373.66C220.556 373.033 220.736 372.32 220.736 371.52C220.736 370.733 220.556 370.027 220.196 369.4C219.85 368.76 219.37 368.26 218.756 367.9C218.156 367.54 217.47 367.36 216.696 367.36C215.936 367.36 215.25 367.54 214.636 367.9C214.023 368.26 213.536 368.76 213.176 369.4C212.816 370.027 212.636 370.733 212.636 371.52C212.636 372.32 212.816 373.033 213.176 373.66C213.536 374.287 214.023 374.787 214.636 375.16C215.25 375.52 215.936 375.7 216.696 375.7ZM225.807 373.46C225.594 373.46 225.407 373.387 225.247 373.24C225.1 373.08 225.027 372.893 225.027 372.68V362.16C225.027 361.933 225.1 361.747 225.247 361.6C225.407 361.44 225.594 361.36 225.807 361.36C226.034 361.36 226.22 361.44 226.367 361.6C226.514 361.747 226.587 361.933 226.587 362.16V372.68C226.587 372.893 226.507 373.08 226.347 373.24C226.187 373.387 226.007 373.46 225.807 373.46ZM225.807 377C225.487 377 225.214 376.887 224.987 376.66C224.76 376.433 224.647 376.16 224.647 375.84C224.647 375.507 224.76 375.227 224.987 375C225.214 374.773 225.487 374.66 225.807 374.66C226.127 374.66 226.4 374.78 226.627 375.02C226.854 375.247 226.967 375.52 226.967 375.84C226.967 376.16 226.854 376.433 226.627 376.66C226.4 376.887 226.127 377 225.807 377Z" fill="black"/>
<path d="M151.017 628.531H142.707V643.469H151.017V628.531Z" fill="#FF5F00"/>
<path d="M143.235 636C143.234 634.561 143.559 633.141 144.188 631.847C144.816 630.553 145.731 629.419 146.862 628.531C145.461 627.43 143.779 626.744 142.007 626.554C140.235 626.364 138.445 626.676 136.843 627.455C135.24 628.234 133.889 629.449 132.943 630.96C131.998 632.471 131.496 634.217 131.496 636C131.496 637.783 131.998 639.529 132.943 641.04C133.889 642.551 135.24 643.766 136.843 644.545C138.445 645.324 140.235 645.636 142.007 645.446C143.779 645.256 145.461 644.57 146.862 643.469C145.731 642.581 144.816 641.447 144.188 640.153C143.559 638.859 143.234 637.439 143.235 636V636Z" fill="#EB001B"/>
<path d="M162.228 636C162.228 637.783 161.726 639.529 160.781 641.04C159.836 642.551 158.484 643.766 156.882 644.545C155.279 645.324 153.489 645.636 151.718 645.446C149.946 645.256 148.263 644.57 146.862 643.469C147.993 642.58 148.906 641.446 149.535 640.152C150.163 638.858 150.49 637.438 150.49 636C150.49 634.562 150.163 633.142 149.535 631.848C148.906 630.554 147.993 629.42 146.862 628.531C148.263 627.43 149.946 626.744 151.718 626.554C153.489 626.364 155.279 626.676 156.882 627.455C158.484 628.234 159.836 629.449 160.781 630.96C161.726 632.471 162.228 634.217 162.228 636V636Z" fill="#F79E1B"/>
<path d="M161.321 641.887V641.581H161.445V641.519H161.131V641.581H161.254V641.887H161.321ZM161.931 641.887V641.518H161.835L161.724 641.772L161.613 641.518H161.517V641.887H161.585V641.609L161.689 641.848H161.759L161.863 641.608V641.887H161.931Z" fill="#F79E1B"/>
<path d="M171.9 645.553H171.549V642.348V635.936V629.525V626.319H171.9V632.731V639.142V645.553Z" fill="black"/>
<path d="M181.633 641.887H180.646V630.557H181.633V641.887ZM188.833 630.557C189.699 630.545 190.561 630.679 191.382 630.954C192.095 631.194 192.751 631.58 193.307 632.087C193.84 632.585 194.257 633.194 194.529 633.871C195.101 635.386 195.101 637.058 194.529 638.573C194.258 639.25 193.841 639.86 193.307 640.358C192.751 640.865 192.095 641.251 191.382 641.491C190.561 641.765 189.699 641.899 188.833 641.887H184.699V630.557H188.833ZM185.686 631.496V640.948H188.833C189.575 640.961 190.314 640.848 191.018 640.612C191.61 640.412 192.153 640.088 192.611 639.662C193.047 639.246 193.381 638.737 193.59 638.172C194.032 636.91 194.032 635.534 193.59 634.272C193.381 633.707 193.046 633.196 192.611 632.779C192.155 632.351 191.611 632.027 191.018 631.828C190.313 631.595 189.575 631.483 188.833 631.496L185.686 631.496ZM206.429 630.428C206.903 630.427 207.375 630.481 207.837 630.59C208.278 630.694 208.706 630.85 209.111 631.055C209.499 631.252 209.861 631.498 210.187 631.787C210.505 632.071 210.782 632.398 211.008 632.759L210.183 633.309C209.989 633.012 209.756 632.743 209.491 632.508C209.223 632.27 208.927 632.066 208.609 631.901C208.281 631.731 207.933 631.602 207.574 631.516C207.199 631.427 206.814 631.382 206.429 631.383C205.785 631.377 205.147 631.495 204.548 631.731C203.982 631.954 203.467 632.29 203.035 632.718C202.599 633.155 202.255 633.675 202.024 634.248C201.533 635.518 201.533 636.926 202.024 638.197C202.255 638.769 202.599 639.289 203.035 639.726C203.467 640.155 203.982 640.491 204.548 640.714C205.147 640.949 205.785 641.067 206.429 641.062C206.813 641.063 207.196 641.019 207.57 640.932C207.928 640.849 208.275 640.721 208.601 640.552C208.919 640.387 209.215 640.183 209.483 639.945C209.75 639.708 209.982 639.436 210.175 639.136L210.984 639.726C210.748 640.08 210.467 640.401 210.146 640.681C209.821 640.964 209.463 641.206 209.079 641.402C208.679 641.604 208.257 641.758 207.821 641.859C206.59 642.139 205.304 642.045 204.127 641.588C203.441 641.316 202.815 640.91 202.287 640.394C201.762 639.873 201.347 639.251 201.069 638.565C200.482 637.06 200.482 635.389 201.069 633.884C201.347 633.196 201.761 632.573 202.287 632.05C202.815 631.534 203.441 631.128 204.127 630.857C204.86 630.567 205.641 630.421 206.429 630.428H206.429ZM214.042 635.591C214.186 635.351 214.365 635.133 214.572 634.944C214.769 634.763 214.991 634.612 215.231 634.494C215.468 634.379 215.717 634.292 215.975 634.236C216.23 634.179 216.491 634.151 216.752 634.15C217.195 634.145 217.636 634.218 218.054 634.365C218.431 634.497 218.776 634.705 219.07 634.976C219.357 635.246 219.58 635.576 219.725 635.943C219.883 636.349 219.962 636.782 219.956 637.218V641.887H219.033V637.501C219.038 637.149 218.983 636.799 218.871 636.465C218.773 636.172 218.609 635.905 218.394 635.684C218.177 635.467 217.915 635.299 217.626 635.194C217.293 635.076 216.943 635.019 216.59 635.024C216.248 635.022 215.91 635.084 215.591 635.207C215.289 635.323 215.014 635.499 214.782 635.725C214.55 635.953 214.365 636.225 214.24 636.526C214.105 636.85 214.037 637.198 214.042 637.549V641.887H213.119V630.234H214.042L214.042 635.591ZM225.441 634.15C225.926 634.146 226.407 634.244 226.852 634.438C227.278 634.624 227.661 634.897 227.977 635.239C228.302 635.598 228.556 636.015 228.725 636.469C228.913 636.97 229.009 637.5 229.008 638.035C229.008 638.105 229.007 638.171 229.004 638.233C229.001 638.295 228.997 638.356 228.992 638.415H222.609C222.633 638.824 222.733 639.225 222.904 639.597C223.059 639.929 223.278 640.227 223.548 640.475C223.812 640.715 224.121 640.901 224.457 641.021C224.809 641.147 225.18 641.21 225.554 641.207C226.047 641.216 226.535 641.116 226.986 640.916C227.409 640.72 227.795 640.451 228.126 640.123L228.62 640.754C228.395 640.982 228.147 641.185 227.88 641.361C227.638 641.518 227.381 641.648 227.111 641.749C226.853 641.846 226.586 641.913 226.314 641.952C226.043 641.99 225.771 642.008 225.497 642.008C224.971 642.014 224.449 641.916 223.96 641.721C223.505 641.539 223.092 641.265 222.747 640.916C222.401 640.561 222.131 640.14 221.954 639.678C221.76 639.169 221.664 638.628 221.671 638.083C221.665 637.543 221.762 637.006 221.958 636.501C222.137 636.038 222.406 635.614 222.75 635.255C223.09 634.905 223.498 634.629 223.948 634.442C224.421 634.245 224.928 634.146 225.441 634.15H225.441ZM225.424 634.968C225.06 634.963 224.699 635.031 224.36 635.166C224.046 635.294 223.759 635.481 223.515 635.716C223.268 635.957 223.066 636.241 222.921 636.554C222.763 636.891 222.663 637.252 222.625 637.622H228.07C228.043 637.25 227.952 636.884 227.803 636.542C227.667 636.229 227.473 635.945 227.232 635.704C226.995 635.468 226.712 635.281 226.402 635.155C226.092 635.029 225.759 634.965 225.424 634.968V634.968ZM234.315 634.15C234.854 634.145 235.389 634.248 235.888 634.454C236.361 634.649 236.783 634.949 237.122 635.332L236.523 635.955C236.236 635.665 235.897 635.43 235.524 635.263C235.135 635.095 234.715 635.011 234.291 635.016C233.892 635.013 233.497 635.092 233.13 635.247C232.779 635.396 232.461 635.613 232.195 635.886C231.927 636.166 231.716 636.496 231.576 636.857C231.28 637.648 231.28 638.519 231.576 639.309C231.713 639.668 231.922 639.995 232.189 640.27C232.456 640.545 232.776 640.764 233.13 640.912C233.497 641.067 233.892 641.146 234.291 641.143C234.721 641.147 235.147 641.059 235.541 640.884C235.914 640.715 236.255 640.483 236.548 640.196L237.122 640.827C236.78 641.208 236.357 641.508 235.884 641.705C234.876 642.108 233.751 642.11 232.741 641.709C232.279 641.521 231.86 641.241 231.509 640.885C231.159 640.53 230.884 640.106 230.703 639.641C230.32 638.637 230.32 637.526 230.703 636.522C230.883 636.055 231.157 635.631 231.508 635.275C231.858 634.919 232.278 634.638 232.741 634.45C233.241 634.246 233.776 634.144 234.315 634.15H234.315ZM239.897 637.485H241.135L244.338 634.272H245.503L241.879 637.865L245.568 641.887H244.395L241.135 638.318H239.897V641.887H238.974V630.234H239.897V637.485Z" fill="black"/>
<g clip-path="url(#clip0)">
<path d="M78 -2H297V-2C294.894 -1.39731 293.418 0.495246 293.345 2.68446L293.317 3.5618V3.5618C293.317 17.0587 282.375 28 268.878 28H106.122C92.6249 28 81.6835 17.0587 81.6835 3.5618V3.5618L81.6545 2.68447C81.5823 0.49525 80.1059 -1.39731 78 -2V-2Z" fill="#0F0E0D"/>
<path opacity="0.35" d="M338.667 17.8333H355.333C356.53 17.8333 357.5 18.8033 357.5 19.9999V25.9999C357.5 27.1965 356.53 28.1666 355.333 28.1666H338.667C337.47 28.1666 336.5 27.1965 336.5 25.9999V19.9999C336.5 18.8033 337.47 17.8333 338.667 17.8333Z" stroke="#0F0E0D"/>
<path opacity="0.4" d="M359 21V25C359.805 24.6612 360.328 23.8731 360.328 23C360.328 22.1269 359.805 21.3388 359 21" fill="#0F0E0D"/>
<path d="M338 20.6666C338 19.9302 338.597 19.3333 339.333 19.3333H354.667C355.403 19.3333 356 19.9302 356 20.6666V25.3333C356 26.0696 355.403 26.6666 354.667 26.6666H339.333C338.597 26.6666 338 26.0696 338 25.3333V20.6666Z" fill="#0F0E0D"/>
<path fill-rule="evenodd" clip-rule="evenodd" d="M323.33 19.6079C325.546 19.608 327.678 20.4594 329.283 21.9862C329.404 22.1041 329.598 22.1026 329.717 21.9829L330.873 20.8162C330.933 20.7555 330.967 20.6733 330.966 20.5877C330.966 20.5021 330.931 20.4202 330.87 20.3602C326.655 16.3207 320.005 16.3207 315.79 20.3602C315.729 20.4202 315.694 20.502 315.694 20.5876C315.693 20.6732 315.727 20.7555 315.787 20.8162L316.943 21.9829C317.062 22.1028 317.256 22.1043 317.377 21.9862C318.983 20.4593 321.114 19.6079 323.33 19.6079ZM323.33 23.4036C324.548 23.4035 325.722 23.856 326.624 24.6732C326.747 24.7892 326.939 24.7867 327.058 24.6676L328.212 23.5009C328.273 23.4397 328.307 23.3567 328.306 23.2704C328.305 23.1842 328.27 23.1018 328.208 23.0419C325.46 20.4855 321.204 20.4855 318.455 23.0419C318.393 23.1018 318.358 23.1842 318.357 23.2705C318.356 23.3568 318.39 23.4398 318.451 23.5009L319.605 24.6676C319.724 24.7867 319.917 24.7892 320.039 24.6732C320.941 23.8566 322.114 23.4041 323.33 23.4036ZM325.643 25.9574C325.645 26.0439 325.611 26.1273 325.549 26.1879L323.552 28.2036C323.494 28.2628 323.414 28.2961 323.33 28.2961C323.247 28.2961 323.167 28.2628 323.109 28.2036L321.111 26.1879C321.049 26.1272 321.015 26.0438 321.017 25.9573C321.019 25.8708 321.057 25.7889 321.121 25.7309C322.396 24.652 324.265 24.652 325.54 25.7309C325.604 25.7889 325.642 25.8709 325.643 25.9574Z" fill="#0F0E0D"/>
<path fill-rule="evenodd" clip-rule="evenodd" d="M309.667 17.6665H308.667C308.114 17.6665 307.667 18.1142 307.667 18.6665V27.3332C307.667 27.8855 308.114 28.3332 308.667 28.3332H309.667C310.219 28.3332 310.667 27.8855 310.667 27.3332V18.6665C310.667 18.1142 310.219 17.6665 309.667 17.6665ZM304 19.9998H305C305.552 19.9998 306 20.4476 306 20.9998V27.3332C306 27.8855 305.552 28.3332 305 28.3332H304C303.448 28.3332 303 27.8855 303 27.3332V20.9998C303 20.4476 303.448 19.9998 304 19.9998ZM300.333 22.3332H299.333C298.781 22.3332 298.333 22.7809 298.333 23.3332V27.3332C298.333 27.8855 298.781 28.3332 299.333 28.3332H300.333C300.886 28.3332 301.333 27.8855 301.333 27.3332V23.3332C301.333 22.7809 300.886 22.3332 300.333 22.3332ZM295.667 24.3332H294.667C294.114 24.3332 293.667 24.7809 293.667 25.3332V27.3332C293.667 27.8855 294.114 28.3332 294.667 28.3332H295.667C296.219 28.3332 296.667 27.8855 296.667 27.3332V25.3332C296.667 24.7809 296.219 24.3332 295.667 24.3332Z" fill="#0F0E0D"/>
<path d="M37.3208 28.2563C40.0088 28.2563 41.6055 26.1543 41.6055 22.5947C41.6055 21.2544 41.3491 20.1265 40.8584 19.2549C40.1479 17.8999 38.9248 17.1675 37.3794 17.1675C35.0796 17.1675 33.4536 18.7129 33.4536 20.8809C33.4536 22.917 34.9185 24.3965 36.9326 24.3965C38.1704 24.3965 39.1738 23.8179 39.6719 22.8145H39.6938C39.6938 22.8145 39.7231 22.8145 39.7305 22.8145C39.7451 22.8145 39.7964 22.8145 39.7964 22.8145C39.7964 25.2314 38.8809 26.6743 37.3354 26.6743C36.4272 26.6743 35.7241 26.1763 35.4824 25.3779H33.6001C33.915 27.1138 35.3872 28.2563 37.3208 28.2563ZM37.3867 22.895C36.1709 22.895 35.3066 22.0308 35.3066 20.8223C35.3066 19.6431 36.2148 18.7422 37.394 18.7422C38.5732 18.7422 39.4814 19.6577 39.4814 20.8516C39.4814 22.0308 38.5952 22.895 37.3867 22.895Z" fill="#0F0E0D"/>
<path d="M44.6966 28.1538C45.3924 28.1538 45.8685 27.6558 45.8685 26.9966C45.8685 26.3301 45.3924 25.8394 44.6966 25.8394C44.0081 25.8394 43.5247 26.3301 43.5247 26.9966C43.5247 27.6558 44.0081 28.1538 44.6966 28.1538ZM44.6966 22.6606C45.3924 22.6606 45.8685 22.1699 45.8685 21.5107C45.8685 20.8442 45.3924 20.3535 44.6966 20.3535C44.0081 20.3535 43.5247 20.8442 43.5247 21.5107C43.5247 22.1699 44.0081 22.6606 44.6966 22.6606Z" fill="#0F0E0D"/>
<path d="M52.7242 28H54.5333V26.0298H55.9615V24.4331H54.5333V17.4312H51.8673C49.9996 20.2437 48.5128 22.5947 47.5606 24.3452V26.0298H52.7242V28ZM49.3111 24.3672C50.5416 22.1992 51.6402 20.4634 52.651 18.9692H52.7535V24.4771H49.3111V24.3672Z" fill="#0F0E0D"/>
<path d="M59.9901 28H61.8798V17.4312H59.9975L57.2362 19.3647V21.1812L59.8656 19.3354H59.9901V28Z" fill="#0F0E0D"/>
</g>
<defs>
<clipPath id="clip0">
<rect width="375" height="44" fill="white"/>
</clipPath>
</defs>
</svg>
