<svg width="318" height="318" viewBox="0 0 318 318" fill="none" xmlns="http://www.w3.org/2000/svg">
<path opacity="0.04" d="M194.114 3.89661L184.274 47.5848C188.434 48.5232 192.537 49.696 196.565 51.0975L211.281 8.80417C205.656 6.84555 199.925 5.20708 194.114 3.89661Z" fill="#76F26B"/>
<path opacity="0.07" d="M219.593 62.1668L243.395 24.2243C238.358 21.0603 233.146 18.1849 227.783 15.6121L208.383 55.9795C212.232 57.8311 215.975 59.8967 219.593 62.1668Z" fill="#76F26B"/>
<path opacity="0.11" d="M239.62 78.1051L271.241 46.3755C267.028 42.1919 262.587 38.2445 257.938 34.5513L230.054 69.5952C233.397 72.2539 236.59 75.0949 239.62 78.1051Z" fill="#76F26B"/>
<path opacity="0.14" d="M255.622 98.0746L293.481 74.1382C290.305 69.1147 286.851 64.2721 283.135 59.6331L248.181 87.658C250.857 90.9862 253.341 94.4641 255.622 98.0746Z" fill="#76F26B"/>
<path opacity="0.18" d="M266.762 121.058L309.042 106.213C307.068 100.598 304.776 95.0989 302.177 89.7438L261.867 109.278C263.719 113.109 265.353 117.042 266.762 121.058Z" fill="#76F26B"/>
<path opacity="0.21" d="M272.475 145.954L316.983 140.905C316.309 134.995 315.305 129.127 313.975 123.329L270.319 133.336C271.275 137.498 271.995 141.711 272.475 145.954Z" fill="#76F26B"/>
<path opacity="0.25" d="M318 158.719H273.211V159C273.212 163.275 272.975 167.548 272.501 171.797L317.015 176.756C317.67 170.86 317.999 164.932 318 159V158.719Z" fill="#76F26B"/>
<path opacity="0.29" d="M266.813 196.725L309.093 211.512C311.058 205.888 312.705 200.159 314.027 194.351L270.351 184.434C269.403 188.594 268.222 192.697 266.813 196.725Z" fill="#76F26B"/>
<path opacity="0.32" d="M255.737 219.746L293.641 243.606C296.81 238.568 299.696 233.358 302.286 228L261.944 208.543C260.084 212.389 258.012 216.13 255.737 219.746Z" fill="#76F26B"/>
<path opacity="0.36" d="M239.773 239.748L271.445 271.413C275.649 267.211 279.614 262.776 283.321 258.13L248.315 230.188C245.647 233.531 242.796 236.722 239.773 239.748Z" fill="#76F26B"/>
<path opacity="0.39" d="M219.778 255.718L243.651 293.616C248.679 290.444 253.528 286.997 258.175 283.289L230.214 248.296C226.877 250.963 223.393 253.441 219.778 255.718Z" fill="#76F26B"/>
<path opacity="0.43" d="M196.776 266.813L211.582 309.081C217.2 307.111 222.703 304.828 228.064 302.241L208.588 261.931C204.744 263.776 200.801 265.405 196.776 266.813Z" fill="#76F26B"/>
<path opacity="0.46" d="M171.874 272.495L176.851 317.008C182.763 316.345 188.633 315.352 194.434 314.033L184.485 270.364C180.324 271.309 176.114 272.02 171.874 272.495Z" fill="#76F26B"/>
<path opacity="0.5" d="M146.248 272.507L141.308 317.027C147.183 317.675 153.089 318 159 318H159.07V273.211H159C154.74 273.211 150.482 272.976 146.248 272.507Z" fill="#76F26B"/>
<path opacity="0.54" d="M106.565 309.145C112.188 311.109 117.917 312.754 123.726 314.071L133.63 270.39C129.468 269.445 125.362 268.266 121.333 266.858L106.565 309.145Z" fill="#76F26B"/>
<path opacity="0.57" d="M98.3049 255.769L74.4645 293.686C79.5017 296.855 84.714 299.737 90.0766 302.318L109.508 261.969C105.662 260.112 101.922 258.042 98.3049 255.769Z" fill="#76F26B"/>
<path opacity="0.61" d="M78.2907 239.812L46.6443 271.503C50.8518 275.701 55.2884 279.664 59.9337 283.372L87.8563 248.354C84.5131 245.684 81.3197 242.833 78.2907 239.812Z" fill="#76F26B"/>
<path opacity="0.64" d="M62.3139 219.829L24.4291 243.721C27.6034 248.745 31.0531 253.59 34.7625 258.233L69.7425 230.265C67.0752 226.927 64.5952 223.443 62.3139 219.829Z" fill="#76F26B"/>
<path opacity="0.68" d="M51.1871 196.834L8.95776 211.659C10.9302 217.275 13.2181 222.776 15.8104 228.135L56.1203 208.639C54.2517 204.801 52.6046 200.86 51.1871 196.834Z" fill="#76F26B"/>
<path opacity="0.71" d="M45.5118 171.931L1.00464 176.935C1.66635 182.845 2.66182 188.713 3.98629 194.511L47.6489 184.549C46.7027 180.386 45.9892 176.173 45.5118 171.931Z" fill="#76F26B"/>
<path opacity="0.75" d="M44.7887 159C44.7899 154.759 45.0227 150.521 45.4862 146.306L0.966157 141.404C0.324107 147.248 0.00157435 153.122 0 159L0 159.141H44.7887V159Z" fill="#76F26B"/>
<path opacity="0.79" d="M51.1231 121.39L8.82974 106.642C6.8669 112.266 5.22626 117.998 3.91577 123.809L47.5976 133.682C48.5412 129.522 49.7182 125.418 51.1231 121.39Z" fill="#76F26B"/>
<path opacity="0.82" d="M62.1987 98.3561L24.2691 74.5349C21.1045 79.5736 18.2249 84.7858 15.644 90.147L56.0051 109.566C57.8588 105.717 59.9266 101.974 62.1987 98.3561Z" fill="#76F26B"/>
<path opacity="0.86" d="M78.1435 78.3355L46.4331 46.7083C42.2302 50.9153 38.2635 55.3519 34.5513 59.9977L69.5825 87.9011C72.2595 84.5588 75.1175 81.3655 78.1435 78.3355Z" fill="#76F26B"/>
<path opacity="0.89" d="M98.1257 62.3459L74.2213 24.4739C69.1939 27.6485 64.3471 31.1004 59.7034 34.8137L87.6899 69.7809C91.0273 67.11 94.5113 64.6279 98.1257 62.3459Z" fill="#76F26B"/>
<path opacity="0.93" d="M121.115 51.1871L106.264 8.95776C100.648 10.9302 95.1472 13.2181 89.7886 15.8104L109.304 56.1203C113.146 54.2583 117.09 52.6114 121.115 51.1871Z" fill="#76F26B"/>
<path opacity="0.96" d="M146.011 45.5182L140.989 1.01099C135.076 1.68065 129.206 2.68036 123.406 4.00543L133.394 47.6617C137.556 46.7133 141.769 45.9977 146.011 45.5182Z" fill="#76F26B"/>
<path d="M159 0H158.789V44.7887H159C163.222 44.7877 167.44 45.0184 171.637 45.4798L176.525 0.95336C170.705 0.318289 164.855 3.27587e-05 159 0V0Z" fill="#76F26B"/>
</svg>
